Release Title: The Book Of Eli	 
Release Date: 15 Jan 2010
Release Length: 01:57:47
Storyline: In a violent post-apocalyptic society, the drifter Eli has been wandering to west across North America for the last thirty years reading a unique book that he brings with him. He survives hunting small animals and seeking goods in destroyed houses and vehicles to trade in villages for water and supplies. When he reaches the village ruled by the powerful mobster Carnegie, the man offers a job to Eli to join his gang. Carnegie presses his blind lover Claudia to send her daughter Solara to convince Eli spending the night with him. The girl sees the book of Eli, and when Carnegie beats up on Claudia, she reveals that Eli has the sought book. Carnegie sends his gang to take the book from Eli, but the man is up for protecting the book with his life. 


cast

Denzel Washington   	 ...  	Eli
Gary Oldman 	... 	Carnegie
Mila Kunis 	... 	Solara
Ray Stevenson 	... 	Redridge
Jennifer Beals 	... 	Claudia
Evan Jones 	... 	Martz
Joe Pingue 	... 	Hoyt
Frances de la Tour ... 	Martha
Michael Gambon 	... 	George
Tom Waits 	... 	Engineer
Chris Browning 	... 	Hijack Leader
Richard Cetrone ... 	Hijacker
Lateef Crowder 	... 	Hijacker / Construction Thug 
Keith Davis   	 ...  	Hijacker
Don Tai 	... 	Hijacker (as Don Theerathada) 


Video
ID                               : 1
Format                           : AVC
Format/Info                      : Advanced Video Codec
Format profile                   : High@L4.0
Format settings, CABAC           : Yes
Format settings, ReFrames        : 4 frames
Muxing mode                      : Container profile=Unknown@4.0
Codec ID                         : V_MPEG4/ISO/AVC
Duration                         : 1h 52mn
Bit rate                         : 1 849 Kbps
Width                            : 1 280 pixels
Height                           : 528 pixels
Display aspect ratio             : 2.40:1
Frame rate                       : 25.000 fps
Original frame rate              : 23.976 fps
Color space                      : YUV
Chroma subsampling               : 4:2:0
Bit depth                        : 8 bits
Scan type                        : Progressive
Bits/(Pixel*Frame)               : 0.109
Stream size                      : 1.48 GiB (81%)
Writing library                  : x264 core 93 r1542 5b86182


Audio #1
ID                               : 2
Format                           : MPEG Audio
Format version                   : Version 1
Format profile                   : Layer 3
Mode                             : Joint stereo
Codec ID                         : A_MPEG/L3
Codec ID/Hint                    : MP3
Duration                         : 1h 52mn
Bit rate mode                    : Constant
Bit rate                         : 128 Kbps
Channel(s)                       : 2 channels
Sampling rate                    : 48.0 KHz
Stream size                      : 103 MiB (6%)
Title                            : Eng_by_Harshad
Writing library                  : LAME3.90.3


Audio #2
ID                               : 3
Format                           : MPEG Audio
Format version                   : Version 1
Format profile                   : Layer 3
Codec ID                         : A_MPEG/L3
Codec ID/Hint                    : MP3
Duration                         : 1h 52mn
Bit rate mode                    : Constant
Bit rate                         : 256 Kbps
Channel(s)                       : 2 channels
Sampling rate                    : 48.0 KHz
Stream size                      : 207 MiB (11%)
Title                            : Hindi_by_Harshad
Language                         : Hindi


Screenshots
 
http://img6.imageshack.us/img6/8983/25791434.jpg 
http://img18.imageshack.us/img18/945/77956958.jpg 
http://img163.imageshack.us/img163/2749/40959223.jpg 
http://img717.imageshack.us/img717/9163/72965919.jpg 
http://img853.imageshack.us/img853/9052/93489462.jpg 
http://img27.imageshack.us/img27/7194/97157237.jpg